<svg width="183" height="152" viewBox="0 0 183 152" fill="none" xmlns="http://www.w3.org/2000/svg">
<path d="M147.485 27.4768C145.315 19.2917 135.098 16.5247 129.095 22.4962L113.549 37.9587C107.545 43.9302 110.257 54.1616 118.431 56.3752L139.594 62.107C147.768 64.3206 155.272 56.8562 153.103 48.6711L147.485 27.4768Z" fill="#2D2D2D"/>
<path d="M141.919 27.333C141.13 24.3565 137.415 23.3504 135.232 25.5218L114.913 45.7322C112.73 47.9036 113.716 51.6241 116.688 52.4291L144.35 59.9209C147.322 60.7258 150.051 58.0115 149.262 55.0351L141.919 27.333Z" fill="#F5E187"/>
<path d="M134.752 25.4963C137.016 23.2447 140.594 23.7285 142.312 26.0823C133.003 29.5733 127.691 39.6314 130.317 49.4338C130.467 49.9922 130.641 50.5382 130.835 51.0715L122.061 48.6965C118.347 47.6902 117.114 43.0397 119.843 40.3254L134.752 25.4963Z" fill="black" fill-opacity="0.19"/>
<path d="M34.5722 27.4768C36.7419 19.2917 46.9586 16.5247 52.9623 22.4962L68.508 37.9587C74.5118 43.9302 71.7997 54.1616 63.6263 56.3752L42.4626 62.107C34.2892 64.3206 26.7846 56.8562 28.9542 48.6711L34.5722 27.4768Z" fill="#2D2D2D"/>
<path d="M40.1377 27.333C40.9266 24.3565 44.6418 23.3504 46.825 25.5218L67.1442 45.7322C69.3273 47.9036 68.3411 51.6241 65.369 52.4291L37.7067 59.9209C34.7346 60.7258 32.0057 58.0115 32.7946 55.0351L40.1377 27.333Z" fill="#F5E187"/>
<path fill-rule="evenodd" clip-rule="evenodd" d="M38.7057 28.2136C39.4481 25.1082 42.7467 23.6388 45.4455 24.7381C39.3611 32.6011 40.1286 43.95 47.5153 50.9086C47.9361 51.3049 48.3712 51.6779 48.8164 52.0297L40.1044 54.6208C36.4152 55.7173 32.9224 52.4089 33.8168 48.6657L38.7057 28.2136Z" fill="black" fill-opacity="0.19"/>
<path d="M171.909 91.7247C171.909 76.1211 163.622 61.1394 148.826 49.996C134.03 38.8525 113.905 32.4357 92.7715 32.1231C71.6383 31.8104 51.1814 37.6268 35.7924 48.3237C20.4035 59.0206 11.3095 73.7451 10.4626 89.3362L91.1534 91.7247H171.909Z" fill="#6F86F3"/>
<ellipse cx="91.5" cy="93.8041" rx="74.1705" ry="54.7614" fill="#2D2D2D"/>
<rect x="155.273" y="72.3159" width="24.2614" height="38.8182" rx="12.1307" fill="#6F86F3"/>
<path fill-rule="evenodd" clip-rule="evenodd" d="M176.072 87.2432C177.086 88.5605 177.69 90.2092 177.69 92V101.37C177.69 105.605 174.318 109.05 170.113 109.173C173.6 107.874 176.084 104.516 176.085 100.576V87.7266C176.085 87.5644 176.08 87.4032 176.072 87.2432Z" fill="#6F86F3"/>
<path fill-rule="evenodd" clip-rule="evenodd" d="M176.072 87.2432C177.086 88.5605 177.69 90.2092 177.69 92V101.37C177.69 105.605 174.318 109.05 170.113 109.173C173.6 107.874 176.084 104.516 176.085 100.576V87.7266C176.085 87.5644 176.08 87.4032 176.072 87.2432Z" fill="white" fill-opacity="0.2"/>
<rect x="170.523" y="79.2478" width="12.4773" height="25.6477" rx="6.23864" fill="#6F86F3"/>
<rect x="170.523" y="79.2478" width="12.4773" height="25.6477" rx="6.23864" fill="white" fill-opacity="0.5"/>
<rect width="24.2614" height="38.8182" rx="12.1307" transform="matrix(-1 0 0 1 27.0341 72.3159)" fill="#6F86F3"/>
<path fill-rule="evenodd" clip-rule="evenodd" d="M6.23492 87.2432C5.22117 88.5605 4.61676 90.2092 4.61676 92V101.37C4.61676 105.605 7.98843 109.05 12.1939 109.173C8.70677 107.874 6.22243 104.516 6.22223 100.576V87.7266C6.22223 87.5644 6.22661 87.4032 6.23492 87.2432Z" fill="#6F86F3"/>
<path fill-rule="evenodd" clip-rule="evenodd" d="M6.23492 87.2432C5.22117 88.5605 4.61676 90.2092 4.61676 92V101.37C4.61676 105.605 7.98843 109.05 12.1939 109.173C8.70677 107.874 6.22243 104.516 6.22223 100.576V87.7266C6.22223 87.5644 6.22661 87.4032 6.23492 87.2432Z" fill="white" fill-opacity="0.2"/>
<rect width="12.4773" height="25.6477" rx="6.23864" transform="matrix(-1 0 0 1 12.4773 79.2478)" fill="#6F86F3"/>
<rect width="12.4773" height="25.6477" rx="6.23864" transform="matrix(-1 0 0 1 12.4773 79.2478)" fill="white" fill-opacity="0.5"/>
<path d="M91.1531 85.8074C100.796 109.15 122.881 126.042 149.143 128.222C135.545 140.62 114.763 148.547 91.4734 148.547C68.1518 148.547 47.3446 140.599 33.7478 128.173C59.7532 125.792 81.582 108.977 91.1531 85.8074Z" fill="white"/>
<ellipse cx="91.5" cy="115.293" rx="8.31818" ry="4.15909" fill="#F5E187"/>
<ellipse cx="133.091" cy="105.589" rx="18.0227" ry="11.0909" fill="white" fill-opacity="0.33"/>
<rect width="28.8261" height="4.16013" rx="2.08006" transform="matrix(0.919671 -0.392691 0.441864 0.897082 135.864 95.4199)" fill="white"/>
<rect x="136.173" y="94.853" width="29.1136" height="4.15909" rx="2.07955" fill="white"/>
<rect width="28.8261" height="4.16013" rx="2.08006" transform="matrix(-0.919671 -0.392691 -0.441864 0.897082 47.446 95.4199)" fill="white"/>
<rect width="29.1136" height="4.15909" rx="2.07955" transform="matrix(-1 0 0 1 47.1364 94.853)" fill="white"/>
<ellipse cx="49.9091" cy="105.589" rx="18.0227" ry="11.0909" fill="white" fill-opacity="0.33"/>
<path d="M92.1932 119.106C92.1932 119.879 92.0408 120.646 91.7447 121.36C91.4486 122.075 91.0146 122.725 90.4674 123.272C89.9203 123.819 89.2708 124.253 88.5559 124.549C87.8411 124.845 87.0749 124.998 86.3011 124.998C85.5274 124.998 84.7612 124.845 84.0463 124.549C83.3315 124.253 82.682 123.819 82.1348 123.272C81.5877 122.725 81.1537 122.075 80.8576 121.36C80.5615 120.646 80.4091 119.879 80.4091 119.106H82.9115C82.9115 119.551 82.9991 119.992 83.1695 120.403C83.3398 120.814 83.5895 121.188 83.9043 121.503C84.219 121.817 84.5927 122.067 85.004 122.237C85.4152 122.408 85.856 122.495 86.3011 122.495C86.7463 122.495 87.1871 122.408 87.5983 122.237C88.0096 122.067 88.3832 121.817 88.698 121.503C89.0128 121.188 89.2624 120.814 89.4328 120.403C89.6031 119.992 89.6908 119.551 89.6908 119.106H92.1932Z" fill="#F5E187"/>
<path d="M102.591 119.106C102.591 119.879 102.439 120.646 102.142 121.36C101.846 122.075 101.412 122.725 100.865 123.272C100.318 123.819 99.6685 124.253 98.9537 124.549C98.2388 124.845 97.4727 124.998 96.6989 124.998C95.9251 124.998 95.159 124.845 94.4441 124.549C93.7293 124.253 93.0797 123.819 92.5326 123.272C91.9855 122.725 91.5515 122.075 91.2554 121.36C90.9593 120.646 90.8069 119.879 90.8069 119.106H93.3445C93.3445 119.546 93.4313 119.982 93.5999 120.389C93.7684 120.796 94.0155 121.166 94.327 121.478C94.6385 121.789 95.0083 122.036 95.4152 122.205C95.8222 122.373 96.2584 122.46 96.6989 122.46C97.1394 122.46 97.5756 122.373 97.9826 122.205C98.3895 122.036 98.7593 121.789 99.0708 121.478C99.3823 121.166 99.6294 120.796 99.7979 120.389C99.9665 119.982 100.053 119.546 100.053 119.106H102.591Z" fill="#F5E187"/>
<ellipse cx="16.6364" cy="21.8352" rx="16.6364" ry="21.8352" transform="matrix(1 0 0 -1 100.511 104.896)" fill="white"/>
<ellipse cx="12.1307" cy="15.9432" rx="12.1307" ry="15.9432" transform="matrix(1 0 0 -1 106.057 101.43)" fill="black"/>
<path d="M114.277 98.2248C114.257 98.4658 114.019 98.4658 113.999 98.2248L113.836 96.2029C113.624 93.5921 112.221 91.5337 110.441 91.2239L109.062 90.984C108.898 90.9554 108.898 90.6057 109.062 90.577L110.441 90.3371C112.221 90.0273 113.624 87.9689 113.836 85.3582L113.999 83.3363C114.019 83.0953 114.257 83.0953 114.277 83.3363L114.44 85.3582C114.652 87.9689 116.055 90.0273 117.835 90.3371L119.214 90.577C119.378 90.6057 119.378 90.9554 119.214 90.984L117.835 91.2239C116.055 91.5337 114.652 93.5921 114.44 96.2029L114.277 98.2248Z" fill="#F5E187"/>
<circle cx="1.38636" cy="1.38636" r="1.38636" transform="matrix(-0.618231 0.785996 0.785996 0.618231 118.714 83)" fill="white" fill-opacity="0.23"/>
<ellipse cx="16.6364" cy="21.8352" rx="16.6364" ry="21.8352" transform="matrix(1 0 0 -1 48.5227 104.896)" fill="white"/>
<ellipse cx="12.1307" cy="15.9432" rx="12.1307" ry="15.9432" transform="matrix(1 0 0 -1 54.0682 101.43)" fill="black"/>
<path d="M68.3376 98.0692C68.3181 98.3103 68.0796 98.3103 68.0601 98.0692L67.8966 96.0474C67.6853 93.4366 66.2819 91.3782 64.5018 91.0684L63.1233 90.8285C62.9589 90.7999 62.9589 90.4501 63.1233 90.4215L64.5018 90.1816C66.2819 89.8718 67.6853 87.8134 67.8966 85.2027L68.0601 83.1808C68.0796 82.9397 68.3181 82.9397 68.3376 83.1808L68.5012 85.2027C68.7124 87.8134 70.1159 89.8718 71.8959 90.1816L73.2745 90.4215C73.4388 90.4501 73.4388 90.7999 73.2745 90.8285L71.8959 91.0684C70.1159 91.3782 68.7124 93.4366 68.5012 96.0474L68.3376 98.0692Z" fill="#F5E187"/>
<circle cx="1.38636" cy="1.38636" r="1.38636" transform="matrix(-0.618231 0.785996 0.785996 0.618231 72.7142 83)" fill="white" fill-opacity="0.23"/>
</svg>
