<svg width="88" height="55" viewBox="0 0 88 55" fill="none" xmlns="http://www.w3.org/2000/svg">
<path d="M73.1367 19.2352C73.3203 18.2492 73.4163 17.2319 73.4163 16.1916C73.4163 7.24924 66.324 0 57.575 0C52.222 0 47.489 2.7139 44.6217 6.86909C41.8687 4.50683 38.318 3.08412 34.4423 3.08412C25.7774 3.08412 18.7374 10.1948 18.6031 19.0185H18.6012C8.88023 19.0185 1 27.0732 1 37.0093C1 46.9454 8.88023 55 18.6012 55H70.399C80.1197 55 88 46.9454 88 37.0093C88 28.025 81.5573 20.5794 73.1367 19.2352Z" fill="#B8C3F9"/>
<path d="M29.5004 17.893C30.1037 17.9768 30.103 18.999 29.4996 19.0824C25.873 19.5835 23.4528 20.2625 21.7689 21.5809C19.6398 23.2419 18.7263 25.9361 18.0876 30.5931C18.0049 31.1957 16.9956 31.1943 16.9129 30.5918C16.243 25.7134 15.2683 22.999 12.9066 21.3564C11.2477 20.1943 8.88584 19.5707 5.45187 19.1007C4.84885 19.0182 4.84985 18.006 5.45285 17.9232C9.09665 17.4233 11.5341 16.7494 13.2061 15.444C15.3602 13.7594 16.2775 11.0636 16.9177 6.37662C16.9999 5.77434 18.0053 5.77555 18.088 6.37778C18.6628 10.564 19.4532 13.1549 21.1448 14.8453C22.819 16.5183 25.3889 17.3222 29.5004 17.893Z" fill="white"/>
</svg>
