<svg width="158" height="144" viewBox="0 0 158 144" fill="none" xmlns="http://www.w3.org/2000/svg">
<path d="M139.693 26.9822C137.524 18.797 127.307 16.03 121.303 22.0016L108.083 35.1506C102.08 41.1222 104.792 51.3536 112.965 53.5672L130.963 58.4414C139.136 60.655 146.641 53.1906 144.471 45.0055L139.693 26.9822Z" fill="#2D2D2D"/>
<path d="M134.262 26.2056C133.473 23.2292 129.758 22.223 127.575 24.3944L108.903 42.9664C106.72 45.1379 107.706 48.8584 110.678 49.6633L136.098 56.5478C139.07 57.3527 141.799 54.6384 141.01 51.662L134.262 26.2056Z" fill="#F5E187"/>
<path fill-rule="evenodd" clip-rule="evenodd" d="M127.053 24.4371C129.215 22.2862 132.579 22.6317 134.373 24.7183C125.674 28.0743 120.73 37.5234 123.197 46.733C123.339 47.2612 123.503 47.7773 123.687 48.2818L115.849 46.1598C112.134 45.1534 110.902 40.5029 113.63 37.7887L127.053 24.4371Z" fill="black" fill-opacity="0.19"/>
<path d="M32.417 26.9817C34.5866 18.7965 44.8033 16.0295 50.807 22.0011L64.0269 35.1501C70.0306 41.1217 67.3186 51.3531 59.1452 53.5667L41.1478 58.441C32.9745 60.6545 25.4698 53.1901 27.6395 45.005L32.417 26.9817Z" fill="#2D2D2D"/>
<path d="M37.8484 26.2056C38.6373 23.2292 42.3525 22.223 44.5357 24.3944L63.2077 42.9664C65.3908 45.1379 64.4046 48.8584 61.4325 49.6633L36.0127 56.5478C33.0406 57.3527 30.3116 54.6384 31.1006 51.662L37.8484 26.2056Z" fill="#F5E187"/>
<path fill-rule="evenodd" clip-rule="evenodd" d="M36.4811 27.1327C37.1903 24.1657 40.2341 22.6917 42.8578 23.5245C37.2203 30.9522 37.9807 41.5896 44.921 48.1275C45.3188 48.5021 45.7292 48.855 46.15 49.1876L38.3685 51.5011C34.6792 52.5979 31.1855 49.2898 32.08 45.5465L36.4811 27.1327Z" fill="black" fill-opacity="0.19"/>
<path d="M162.516 86.713C162.516 71.962 154.681 57.799 140.694 47.2645C126.706 36.73 107.681 30.6638 87.7026 30.3682C67.7241 30.0727 48.3851 35.5713 33.8371 45.6836C19.2891 55.796 10.692 69.7159 9.89138 84.455L86.1729 86.713H162.516Z" fill="#6F86F3"/>
<ellipse cx="86.5012" cy="88.6786" rx="70.1174" ry="51.7689" fill="#2D2D2D"/>
<rect x="146.789" y="68.3647" width="22.9356" height="36.697" rx="11.4678" fill="#6F86F3"/>
<rect width="22.9356" height="36.697" rx="11.4678" transform="matrix(-1 0 0 1 25.5576 68.3647)" fill="#6F86F3"/>
<path d="M5.89551 82.4761C4.93685 83.7215 4.36531 85.28 4.36523 86.9731V95.8315C4.36523 99.836 7.5535 103.094 11.5303 103.208C8.23257 101.981 5.88282 98.8057 5.88281 95.0806V82.9331C5.88282 82.7798 5.88764 82.6274 5.89551 82.4761Z" fill="#6F86F3"/>
<path d="M5.89551 82.4761C4.93685 83.7215 4.36531 85.28 4.36523 86.9731V95.8315C4.36523 99.836 7.5535 103.094 11.5303 103.208C8.23257 101.981 5.88282 98.8057 5.88281 95.0806V82.9331C5.88282 82.7798 5.88764 82.6274 5.89551 82.4761Z" fill="white" fill-opacity="0.2"/>
<rect width="11.7955" height="24.2462" rx="5.89773" transform="matrix(-1 0 0 1 11.7959 74.9185)" fill="#6F86F3"/>
<rect width="11.7955" height="24.2462" rx="5.89773" transform="matrix(-1 0 0 1 11.7959 74.9185)" fill="white" fill-opacity="0.5"/>
<path d="M86.1729 81.1187C95.2888 103.186 116.167 119.156 140.994 121.216C128.139 132.936 108.493 140.429 86.4756 140.429C64.4285 140.429 44.7591 132.916 31.9053 121.168C56.4892 118.918 77.1248 103.022 86.1729 81.1187Z" fill="url(#paint0_linear_874_11247)"/>
<ellipse cx="125.819" cy="99.8188" rx="17.0379" ry="10.4848" fill="white" fill-opacity="0.33"/>
<rect width="27.2509" height="3.9328" rx="1.9664" transform="matrix(0.919671 -0.392691 0.441864 0.897082 128.44 90.2065)" fill="white"/>
<rect x="128.733" y="89.6704" width="27.5227" height="3.93182" rx="1.96591" fill="white"/>
<rect width="27.2509" height="3.9328" rx="1.9664" transform="matrix(-0.919671 -0.392691 -0.441864 0.897082 44.8545 90.2065)" fill="white"/>
<rect width="27.5227" height="3.93182" rx="1.96591" transform="matrix(-1 0 0 1 44.5615 89.6704)" fill="white"/>
<ellipse cx="47.1824" cy="99.8188" rx="17.0379" ry="10.4848" fill="white" fill-opacity="0.33"/>
<path d="M62.7207 97.9839C71.4064 97.9837 78.4471 88.7423 78.4473 77.3423C78.4473 75.2229 78.203 73.1781 77.751 71.2534L63.6348 66.1147L52.2295 61.9644C49.0159 65.7438 46.9932 71.2331 46.9932 77.3423C46.9933 88.7424 54.0349 97.9839 62.7207 97.9839Z" fill="white"/>
<path d="M63.7031 94.7075C70.0366 94.7075 75.1709 87.9593 75.1709 79.6353C75.1709 76.8611 74.5975 74.2634 73.6025 72.0308C71.8244 74.3551 67.8073 75.9779 63.1338 75.978C59.0567 75.978 55.478 74.7434 53.4502 72.8853C52.6747 74.9161 52.2354 77.2082 52.2354 79.6353C52.2354 80.1127 52.2541 80.5852 52.2871 81.0513C52.6567 80.8894 53.0648 80.7983 53.4941 80.7983C55.1575 80.7985 56.5057 82.1467 56.5059 83.8101C56.5059 85.4321 55.2241 86.7546 53.6182 86.8198C55.5601 91.5183 59.3487 94.7075 63.7031 94.7075Z" fill="black"/>
<path d="M110.918 97.9839C119.604 97.9837 126.644 88.7423 126.645 77.3423C126.645 71.4375 124.755 66.1125 121.727 62.3501L108.636 67.1147L95.7646 71.7993C95.391 73.5631 95.1904 75.4222 95.1904 77.3423C95.1906 88.7424 102.232 97.9839 110.918 97.9839Z" fill="white"/>
<path d="M111.9 94.708C118.234 94.708 123.368 87.9597 123.368 79.6357C123.368 76.8616 122.795 74.2638 121.8 72.0312C120.022 74.3554 116.004 75.9784 111.331 75.9785C107.254 75.9785 103.675 74.743 101.647 72.8848C100.872 74.9158 100.433 77.2084 100.433 79.6357C100.433 80.1136 100.451 80.5862 100.484 81.0527C100.854 80.8905 101.263 80.7979 101.692 80.7979C103.356 80.798 104.704 82.147 104.704 83.8105C104.704 85.4328 103.422 86.7546 101.815 86.8193C103.757 91.5181 107.546 94.708 111.9 94.708Z" fill="black"/>
<path d="M78.3213 116.277C78.3213 111.951 81.8278 108.445 86.1534 108.445C90.4789 108.445 93.9854 111.951 93.9854 116.277V120.752C93.9854 121.275 93.5616 121.699 93.0387 121.699H79.268C78.7452 121.699 78.3213 121.275 78.3213 120.752V116.277Z" fill="black"/>
<defs>
<linearGradient id="paint0_linear_874_11247" x1="86.4492" y1="81.1187" x2="86.4492" y2="140.429" gradientUnits="userSpaceOnUse">
<stop stop-color="white"/>
<stop offset="1" stop-color="#FFF8D8"/>
</linearGradient>
</defs>
</svg>
