<svg width="72" height="55" viewBox="0 0 72 55" fill="none" xmlns="http://www.w3.org/2000/svg">
<path d="M79.1367 19.2352C79.3203 18.2492 79.4163 17.2319 79.4163 16.1916C79.4163 7.24924 72.324 0 63.575 0C58.222 0 53.489 2.7139 50.6217 6.86909C47.8687 4.50683 44.318 3.08412 40.4423 3.08412C31.7774 3.08412 24.7374 10.1948 24.6031 19.0185H24.6012C14.8802 19.0185 7 27.0732 7 37.0093C7 46.9454 14.8802 55 24.6012 55H76.399C86.1197 55 94 46.9454 94 37.0093C94 28.025 87.5573 20.5794 79.1367 19.2352Z" fill="#B8C3F9"/>
<path d="M29.5004 17.893C30.1037 17.9768 30.103 18.999 29.4996 19.0824C25.873 19.5835 23.4528 20.2625 21.7689 21.5809C19.6398 23.2419 18.7263 25.9361 18.0876 30.5931C18.0049 31.1957 16.9956 31.1943 16.9129 30.5918C16.243 25.7134 15.2683 22.999 12.9066 21.3564C11.2477 20.1943 8.88584 19.5707 5.45187 19.1007C4.84885 19.0182 4.84985 18.006 5.45285 17.9232C9.09665 17.4233 11.5341 16.7494 13.2061 15.444C15.3602 13.7594 16.2775 11.0636 16.9177 6.37662C16.9999 5.77434 18.0053 5.77555 18.088 6.37778C18.6628 10.564 19.4532 13.1549 21.1448 14.8453C22.819 16.5183 25.3889 17.3222 29.5004 17.893Z" fill="white"/>
</svg>
