<svg width="186" height="208" viewBox="0 0 186 208" fill="none" xmlns="http://www.w3.org/2000/svg">
<path d="M179.88 45.5715C176.31 34.9798 161.923 33.5331 156.315 43.2019L134.286 81.1875C129.546 89.36 134.83 99.6989 144.23 100.644L180.286 104.27C189.686 105.215 196.923 96.1354 193.906 87.1829L179.88 45.5715Z" fill="#6F86F3"/>
<path d="M44.0771 68.0818C44.0388 56.9047 57.1898 50.8933 65.6169 58.2358L98.7246 87.082C105.848 93.2881 104.182 104.779 95.5892 108.707L62.6319 123.772C54.0396 127.699 44.2598 121.44 44.2275 111.993L44.0771 68.0818Z" fill="#6F86F3"/>
<ellipse cx="127.788" cy="151.774" rx="94.5893" ry="69.8369" transform="rotate(-9.4116 127.788 151.774)" fill="#2D2D2D"/>
<path d="M125.684 141.784C142.683 169.141 173.991 185.789 207.487 183.055C192.964 201.488 168.472 215.795 139.17 220.652C109.829 225.515 81.9931 219.855 62.2952 207.057C94.5171 198.638 118.474 172.93 125.684 141.784Z" fill="white"/>
<path d="M73.7638 203.161C88.5066 213.154 110.078 219.266 134.012 218.865C141.628 218.738 148.983 217.959 155.936 216.619C150.711 218.206 145.274 219.485 139.66 220.416C110.318 225.279 82.4827 219.619 62.7847 206.82C66.5631 205.833 70.2264 204.605 73.7638 203.161Z" fill="white"/>
<path d="M73.7638 203.161C88.5066 213.154 110.078 219.266 134.012 218.865C141.628 218.738 148.983 217.959 155.936 216.619C150.711 218.206 145.274 219.485 139.66 220.416C110.318 225.279 82.4827 219.619 62.7847 206.82C66.5631 205.833 70.2264 204.605 73.7638 203.161Z" fill="black" fill-opacity="0.07"/>
<rect width="49.5047" height="5.30539" rx="2.6527" transform="matrix(0.843076 -0.537795 0.582612 0.81275 183.832 157.709)" fill="white"/>
<rect x="183.785" y="157.422" width="49.5047" height="5.30407" rx="2.65204" transform="rotate(-9.4116 183.785 157.422)" fill="white"/>
<rect width="49.5047" height="5.30539" rx="2.6527" transform="matrix(-0.971506 -0.237015 -0.28922 0.957263 77.4346 175.346)" fill="url(#paint0_linear_666_931)"/>
<rect width="49.5047" height="5.30407" rx="2.65204" transform="matrix(-0.986539 0.163526 0.163526 0.986539 76.9972 175.122)" fill="url(#paint1_linear_666_931)"/>
<path d="M195.506 89.997C196.138 93.811 193.559 97.4153 189.745 98.0475L50.9369 121.056C47.1229 121.688 43.5186 119.109 42.8864 115.295L42.2846 111.664C41.6524 107.85 44.2317 104.245 48.0457 103.613L186.854 80.6048C190.668 79.9726 194.272 82.552 194.904 86.3659L195.506 89.997ZM106.538 104.663C106.99 107.387 109.564 109.23 112.288 108.778L127.713 106.221C130.438 105.77 132.28 103.195 131.829 100.471L131.75 99.9969C131.118 96.1829 127.513 93.6036 123.7 94.2358L112.22 96.1385C108.406 96.7707 105.827 100.375 106.459 104.189L106.538 104.663Z" fill="#4B68F0"/>
<path d="M45.8466 100.717C44.2209 90.9101 50.8535 81.6419 60.6608 80.0163L169.044 62.051C178.851 60.4254 188.119 67.0579 189.745 76.8652L190.271 80.0382L46.3725 103.89L45.8466 100.717Z" fill="#6F86F3"/>
<circle cx="159.707" cy="135.73" r="21.2163" transform="rotate(-9.4116 159.707 135.73)" fill="white"/>
<circle cx="152.511" cy="138.267" r="12.8182" transform="rotate(-9.4116 152.511 138.267)" fill="black"/>
<ellipse cx="156.73" cy="133.03" rx="5.2821" ry="3.91703" transform="rotate(-137.599 156.73 133.03)" fill="white" fill-opacity="0.23"/>
<circle cx="147.732" cy="145.608" r="1.76824" transform="rotate(-137.599 147.732 145.608)" fill="white" fill-opacity="0.23"/>
<circle cx="21.2163" cy="21.2163" r="21.2163" transform="matrix(-0.986539 0.163526 0.163526 0.986539 109.144 122.606)" fill="white"/>
<circle cx="12.8182" cy="12.8182" r="12.8182" transform="matrix(-0.986539 0.163526 0.163526 0.986539 109.862 132.344)" fill="black"/>
<ellipse cx="5.2821" cy="3.91703" rx="5.2821" ry="3.91703" transform="matrix(0.481378 -0.876513 -0.876513 -0.481378 94.5202 150.005)" fill="white" fill-opacity="0.23"/>
<circle cx="1.76824" cy="1.76824" r="1.76824" transform="matrix(0.481378 -0.876513 -0.876513 -0.481378 106.903 154.892)" fill="white" fill-opacity="0.23"/>
<ellipse cx="178.185" cy="160.917" rx="19.0063" ry="18.5642" transform="rotate(-9.4116 178.185 160.917)" fill="#2D2D2D"/>
<ellipse cx="178.185" cy="160.917" rx="19.0063" ry="18.5642" transform="rotate(-9.4116 178.185 160.917)" fill="url(#paint2_linear_666_931)" fill-opacity="0.2"/>
<path d="M192.427 152.372C193.436 151.767 193.772 150.45 193.057 149.517C190.492 146.166 186.856 143.76 182.722 142.724C177.896 141.515 172.787 142.272 168.519 144.83C164.252 147.388 161.175 151.536 159.966 156.362C158.931 160.496 159.338 164.837 161.084 168.679C161.57 169.75 162.89 170.074 163.899 169.469C164.907 168.865 165.218 167.561 164.768 166.475C163.583 163.617 163.336 160.434 164.097 157.397C165.032 153.666 167.41 150.46 170.709 148.483C174.007 146.506 177.956 145.92 181.687 146.855C184.724 147.616 187.414 149.334 189.376 151.727C190.122 152.636 191.418 152.976 192.427 152.372Z" fill="#1B1B1B"/>
<circle cx="171.16" cy="162.058" r="2.2103" transform="rotate(-9.4116 171.16 162.058)" fill="white" fill-opacity="0.33"/>
<circle cx="181.486" cy="154.074" r="2.2103" transform="rotate(-9.4116 181.486 154.074)" fill="white" fill-opacity="0.33"/>
<circle cx="173.492" cy="154.503" r="2.2103" transform="rotate(-9.4116 173.492 154.503)" fill="white" fill-opacity="0.33"/>
<ellipse cx="19.0063" cy="18.5642" rx="19.0063" ry="18.5642" transform="matrix(-0.986539 0.163526 0.163526 0.986539 98.7948 155.259)" fill="#2D2D2D"/>
<ellipse cx="19.0063" cy="18.5642" rx="19.0063" ry="18.5642" transform="matrix(-0.986539 0.163526 0.163526 0.986539 98.7948 155.259)" fill="url(#paint3_linear_666_931)" fill-opacity="0.2"/>
<path d="M66.843 173.188C65.6933 172.941 64.9497 171.804 65.3251 170.689C66.6721 166.69 69.3378 163.239 72.9165 160.925C77.0943 158.224 82.1742 157.292 87.0386 158.336C91.903 159.38 96.1535 162.314 98.855 166.491C101.169 170.07 102.184 174.311 101.772 178.511C101.657 179.681 100.512 180.414 99.3622 180.167C98.2125 179.92 97.4972 178.786 97.5731 177.613C97.7727 174.525 96.9796 171.433 95.2792 168.804C93.191 165.574 89.9053 163.307 86.1451 162.5C82.3849 161.693 78.4582 162.413 75.2288 164.501C72.5992 166.201 70.6073 168.695 69.5224 171.593C69.1102 172.695 67.9927 173.435 66.843 173.188Z" fill="#1B1B1B"/>
<circle cx="2.2103" cy="2.2103" r="2.2103" transform="matrix(-0.986539 0.163526 0.163526 0.986539 91.9171 172.953)" fill="white" fill-opacity="0.33"/>
<circle cx="2.2103" cy="2.2103" r="2.2103" transform="matrix(-0.986539 0.163526 0.163526 0.986539 79.5677 168.728)" fill="white" fill-opacity="0.33"/>
<circle cx="2.2103" cy="2.2103" r="2.2103" transform="matrix(-0.986539 0.163526 0.163526 0.986539 87.2722 166.555)" fill="white" fill-opacity="0.33"/>
<path d="M129.051 185.748C131.363 186.892 134.146 186.431 135.965 184.602L141.412 179.128C145.521 174.998 141.925 168.024 136.177 168.977L123.81 171.027C118.061 171.98 116.908 179.741 122.13 182.324L129.051 185.748Z" fill="#FFC8D5"/>
<g opacity="0.1">
<path d="M75.8107 231.681L45.4235 241.004C43.4797 227.327 41.8632 219.844 32.9912 208.583L67.5293 197.986C67.0378 212.193 70.1654 219.141 75.6624 231.352L75.8107 231.681Z" fill="black"/>
<path d="M36.3615 207.548C36.386 207.68 36.4125 207.811 36.4435 207.942C37.976 214.422 46.9402 217.849 56.4657 215.596C61.3359 214.445 65.4087 212.03 68.0227 209.08C68.7461 214.199 70.1724 218.552 72.1775 223.405C67.6412 225.35 64.4379 227.791 64.9231 228.989C65.4127 230.196 69.4659 229.699 74.1182 227.902C74.61 229.009 75.1244 230.156 75.6628 231.352L75.8109 231.682L45.4238 241.004C44.7798 236.473 44.1693 232.622 43.3215 229.088C48.8649 227.543 52.8548 225.286 52.5 223.786C52.1373 222.255 47.375 222.048 41.5655 223.228C39.8121 218.484 37.2311 213.964 32.9912 208.583L36.3615 207.548Z" fill="black"/>
<path fill-rule="evenodd" clip-rule="evenodd" d="M32.8274 177.836C35.6415 175.925 39.7707 176.819 43.2281 179.727C44.5704 175.786 47.3429 173.08 50.5438 173.084C53.9851 173.088 56.9228 176.222 58.1185 180.653C59.5099 179.477 61.1233 178.851 62.7983 178.979C67.2936 179.322 70.5296 184.957 70.0256 191.565C69.5653 197.6 66.1451 202.359 62.1314 202.878L39.9675 209.678C36.353 211.499 30.8525 209.477 27.087 204.739C22.9637 199.55 22.4826 193.07 26.0122 190.265C27.3844 189.175 29.1604 188.803 31.0616 189.057C29.2375 184.479 29.826 179.874 32.8274 177.836Z" fill="black"/>
<path d="M47.7196 192.675C51.5994 191.484 55.8422 193.975 57.5028 198.289C60.1405 198.445 62.4075 199.939 63.1222 202.268C64.0869 205.413 61.8567 208.887 58.1406 210.027C56.3068 210.589 54.4542 210.477 52.9317 209.842C52.9167 209.847 52.9016 209.851 52.8866 209.855C51.9818 211.235 50.5104 212.368 48.6757 212.931C44.9598 214.071 41.1654 212.446 40.2005 209.302C39.4709 206.924 40.5689 204.358 42.7548 202.755C41.7403 198.271 43.8558 193.86 47.7196 192.675Z" fill="black"/>
<path opacity="0.5" d="M48.642 196.304C51.3939 195.459 54.4034 197.226 55.5811 200.286C57.4517 200.397 59.0594 201.456 59.5664 203.108C60.2506 205.338 58.6687 207.802 56.0329 208.611C54.7322 209.01 53.4187 208.929 52.3388 208.479C52.3282 208.483 52.3177 208.486 52.307 208.489C51.6654 209.468 50.6216 210.271 49.3203 210.67C46.6846 211.479 43.9932 210.327 43.3088 208.097C42.7913 206.41 43.5699 204.59 45.1201 203.453C44.4008 200.273 45.9016 197.145 48.642 196.304Z" fill="black"/>
<ellipse cx="31.4675" cy="197.698" rx="4.39648" ry="6.28069" transform="rotate(-33.0619 31.4675 197.698)" fill="black"/>
<ellipse cx="37.3956" cy="185.292" rx="4.39648" ry="6.28069" transform="rotate(-33.0619 37.3956 185.292)" fill="black"/>
<ellipse cx="4.39648" cy="6.28069" rx="4.39648" ry="6.28069" transform="matrix(-0.999832 0.0183409 0.0183409 0.999832 54.7748 175.425)" fill="black"/>
<ellipse cx="4.39648" cy="6.28069" rx="4.39648" ry="6.28069" transform="matrix(-0.999832 0.0183409 0.0183409 0.999832 66.8093 181.808)" fill="black"/>
<ellipse opacity="0.5" cx="32.1334" cy="197.46" rx="2.54853" ry="3.98207" transform="rotate(-33.7582 32.1334 197.46)" fill="black"/>
<ellipse opacity="0.5" cx="38.0446" cy="186.316" rx="2.54853" ry="3.98207" transform="rotate(-33.7582 38.0446 186.316)" fill="black"/>
<ellipse opacity="0.5" cx="2.54853" cy="3.98207" rx="2.54853" ry="3.98207" transform="matrix(-0.999981 0.00618921 0.00618921 0.999981 52.844 178.886)" fill="black"/>
<ellipse opacity="0.5" cx="2.54853" cy="3.98207" rx="2.54853" ry="3.98207" transform="matrix(-0.999981 0.00618921 0.00618921 0.999981 64.597 184.61)" fill="black"/>
</g>
<path d="M81.6657 232.258L50.0653 241.953C48.0442 227.73 46.3634 219.947 37.1375 208.236L73.0545 197.218C72.543 211.992 75.7953 219.217 81.5115 231.916L81.6657 232.258Z" fill="white"/>
<path d="M40.6419 207.161C40.6674 207.298 40.6946 207.435 40.7269 207.572C42.3203 214.31 51.6427 217.874 61.5484 215.532C66.6131 214.334 70.8487 211.823 73.5671 208.756C74.3193 214.078 75.8027 218.605 77.8876 223.651C73.1698 225.674 69.8379 228.213 70.3433 229.459C70.8523 230.714 75.0675 230.197 79.9052 228.33C80.4165 229.481 80.9521 230.672 81.5119 231.916L81.6661 232.258L50.0651 241.953C49.3955 237.241 48.7609 233.236 47.8793 229.561C53.6438 227.954 57.7938 225.608 57.4254 224.048C57.0488 222.455 52.0951 222.24 46.0528 223.467C44.2296 218.533 41.547 213.833 37.138 208.236L40.6419 207.161Z" fill="#2D2D2D"/>
<path fill-rule="evenodd" clip-rule="evenodd" d="M36.968 176.263C39.8945 174.276 44.1886 175.205 47.784 178.229C49.1799 174.131 52.0628 171.317 55.3913 171.321C58.9703 171.325 62.0252 174.586 63.2684 179.194C64.7155 177.97 66.3937 177.32 68.1358 177.452C72.8103 177.809 76.1748 183.669 75.6506 190.541C75.1717 196.818 71.6135 201.767 67.4382 202.306L44.3947 209.375C40.6359 211.27 34.9141 209.168 30.9976 204.239C26.71 198.844 26.2103 192.105 29.8808 189.188C31.308 188.054 33.1549 187.668 35.1322 187.933C33.2351 183.172 33.8467 178.382 36.968 176.263Z" fill="white"/>
<mask id="path-47-outside-1_666_931" maskUnits="userSpaceOnUse" x="37.9602" y="185.544" width="35.0569" height="32.406" fill="black">
<rect fill="white" x="37.9602" y="185.544" width="35.0569" height="32.406"/>
<path d="M52.4539 191.695C56.4888 190.457 60.9009 193.048 62.6276 197.534C65.3705 197.696 67.7279 199.25 68.471 201.671C69.4742 204.941 67.1545 208.553 63.29 209.739C61.383 210.324 59.4569 210.207 57.8736 209.548C57.858 209.552 57.8423 209.557 57.8267 209.561C56.8858 210.996 55.3556 212.173 53.4478 212.758C49.5835 213.944 45.6376 212.255 44.6342 208.985C43.8755 206.512 45.018 203.844 47.2914 202.177C46.2367 197.514 48.4361 192.928 52.4539 191.695Z"/>
</mask>
<path d="M52.4539 191.695C56.4888 190.457 60.9009 193.048 62.6276 197.534C65.3705 197.696 67.7279 199.25 68.471 201.671C69.4742 204.941 67.1545 208.553 63.29 209.739C61.383 210.324 59.4569 210.207 57.8736 209.548C57.858 209.552 57.8423 209.557 57.8267 209.561C56.8858 210.996 55.3556 212.173 53.4478 212.758C49.5835 213.944 45.6376 212.255 44.6342 208.985C43.8755 206.512 45.018 203.844 47.2914 202.177C46.2367 197.514 48.4361 192.928 52.4539 191.695Z" fill="#F7BCCE"/>
<path d="M52.4539 191.695L51.8674 189.783L51.8673 189.783L52.4539 191.695ZM62.6276 197.534L60.7611 198.253L61.2238 199.455L62.5098 199.531L62.6276 197.534ZM68.471 201.671L70.3831 201.085L70.383 201.085L68.471 201.671ZM63.29 209.739L63.8766 211.651L63.8766 211.651L63.29 209.739ZM57.8736 209.548L58.6429 207.702L57.985 207.427L57.3019 207.631L57.8736 209.548ZM57.8267 209.561L57.2682 207.641L56.5591 207.847L56.1542 208.464L57.8267 209.561ZM53.4478 212.758L54.0344 214.67L54.0344 214.67L53.4478 212.758ZM44.6342 208.985L42.7222 209.572L42.7222 209.572L44.6342 208.985ZM47.2914 202.177L48.4739 203.79L49.5314 203.014L49.2421 201.736L47.2914 202.177ZM52.4539 191.695L53.0405 193.607C55.8326 192.75 59.315 194.495 60.7611 198.253L62.6276 197.534L64.4942 196.816C62.4869 191.6 57.1449 188.164 51.8674 189.783L52.4539 191.695ZM62.6276 197.534L62.5098 199.531C64.6195 199.655 66.115 200.811 66.559 202.258L68.471 201.671L70.383 201.085C69.3407 197.688 66.1215 195.737 62.7455 195.538L62.6276 197.534ZM68.471 201.671L66.559 202.258C67.1502 204.185 65.8238 206.87 62.7034 207.827L63.29 209.739L63.8766 211.651C68.4853 210.237 71.7982 205.698 70.3831 201.085L68.471 201.671ZM63.29 209.739L62.7035 207.827C61.224 208.281 59.7785 208.175 58.6429 207.702L57.8736 209.548L57.1044 211.394C59.1354 212.24 61.542 212.367 63.8766 211.651L63.29 209.739ZM57.8736 209.548L57.3019 207.631C57.3074 207.629 57.3112 207.628 57.3125 207.628C57.3135 207.628 57.3135 207.628 57.3104 207.629C57.3087 207.629 57.3015 207.631 57.2956 207.633C57.2888 207.635 57.2792 207.637 57.2682 207.641L57.8267 209.561L58.3851 211.482C58.3819 211.482 58.3802 211.483 58.3812 211.483C58.3831 211.482 58.3838 211.482 58.3899 211.48C58.3983 211.478 58.4202 211.472 58.4453 211.464L57.8736 209.548ZM57.8267 209.561L56.1542 208.464C55.4795 209.493 54.3416 210.392 52.8612 210.846L53.4478 212.758L54.0344 214.67C56.3697 213.954 58.2921 212.499 59.4992 210.658L57.8267 209.561ZM53.4478 212.758L52.8613 210.846C49.7408 211.804 47.1374 210.325 46.5462 208.398L44.6342 208.985L42.7222 209.572C44.1377 214.184 49.4262 216.084 54.0344 214.67L53.4478 212.758ZM44.6342 208.985L46.5463 208.398C46.0932 206.922 46.719 205.076 48.4739 203.79L47.2914 202.177L46.1089 200.564C43.317 202.611 41.6578 206.102 42.7222 209.572L44.6342 208.985ZM47.2914 202.177L49.2421 201.736C48.3593 197.832 50.2597 194.46 53.0406 193.607L52.4539 191.695L51.8673 189.783C46.6124 191.395 44.1141 197.195 45.3407 202.618L47.2914 202.177Z" fill="#FFA9C3" fill-opacity="0.1" mask="url(#path-47-outside-1_666_931)"/>
<path opacity="0.5" d="M53.3335 194.706C56.1954 193.828 59.3246 195.666 60.5493 198.848C62.4948 198.963 64.1669 200.065 64.6939 201.783C65.4054 204.102 63.7601 206.664 61.0191 207.505C59.6659 207.92 58.2988 207.838 57.1755 207.369C57.1652 207.372 57.1548 207.375 57.1445 207.378C56.4772 208.396 55.3919 209.231 54.0384 209.646C51.2974 210.487 48.4985 209.289 47.787 206.97C47.2491 205.216 48.0592 203.323 49.6715 202.141C48.9231 198.834 50.4835 195.58 53.3335 194.706Z" fill="white" fill-opacity="0.68"/>
<ellipse cx="35.5534" cy="196.918" rx="4.57197" ry="6.53139" transform="rotate(-33.0605 35.5534 196.918)" fill="#F7BCCE"/>
<path d="M32.5361 192.282C33.2456 191.82 34.2401 191.757 35.3693 192.211C36.4951 192.665 37.6609 193.609 38.5466 194.97C39.4323 196.33 39.8234 197.778 39.7825 198.992C39.7415 200.208 39.2804 201.092 38.5709 201.554C37.8614 202.015 36.8663 202.08 35.7369 201.625C34.6111 201.171 33.4453 200.227 32.5596 198.867C31.674 197.506 31.2828 196.058 31.3237 194.845C31.3647 193.628 31.8265 192.744 32.5361 192.282Z" stroke="#FFA9C3" stroke-opacity="0.1" stroke-width="2"/>
<ellipse cx="41.7182" cy="184.017" rx="4.57197" ry="6.53139" transform="rotate(-33.0605 41.7182 184.017)" fill="#F7BCCE"/>
<path d="M38.701 179.381C39.4105 178.919 40.405 178.855 41.5342 179.31C42.66 179.764 43.8258 180.708 44.7115 182.068C45.5972 183.429 45.9883 184.877 45.9474 186.09C45.9064 187.307 45.4453 188.19 44.7358 188.652C44.0263 189.114 43.0312 189.178 41.9018 188.723C40.776 188.27 39.6102 187.326 38.7245 185.965C37.8389 184.604 37.4477 183.156 37.4886 181.943C37.5296 180.726 37.9914 179.843 38.701 179.381Z" stroke="#FFA9C3" stroke-opacity="0.1" stroke-width="2"/>
<ellipse cx="4.57197" cy="6.53139" rx="4.57197" ry="6.53139" transform="matrix(-0.999832 0.0183175 0.0183175 0.999832 59.7914 173.756)" fill="#F7BCCE"/>
<path d="M55.2383 174.84C54.3919 174.855 53.5326 175.36 52.8528 176.37C52.1751 177.377 51.7392 178.812 51.7689 180.435C51.7986 182.059 52.2868 183.477 53.001 184.458C53.7173 185.443 54.5945 185.916 55.4409 185.9C56.2874 185.885 57.1475 185.38 57.8273 184.37C58.505 183.363 58.941 181.928 58.9112 180.305C58.8815 178.681 58.3933 177.263 57.6791 176.282C56.9627 175.297 56.0848 174.824 55.2383 174.84Z" stroke="#FFA9C3" stroke-opacity="0.1" stroke-width="2"/>
<ellipse cx="4.57197" cy="6.53139" rx="4.57197" ry="6.53139" transform="matrix(-0.999832 0.0183175 0.0183175 0.999832 72.3061 180.395)" fill="#F7BCCE"/>
<path d="M67.7529 181.478C66.9066 181.494 66.0472 181.999 65.3675 183.009C64.6897 184.016 64.2538 185.451 64.2835 187.074C64.3133 188.698 64.8015 190.116 65.5156 191.097C66.232 192.082 67.1091 192.555 67.9555 192.539C68.802 192.524 69.6621 192.019 70.342 191.009C71.0196 190.002 71.4556 188.567 71.4259 186.943C71.3961 185.32 70.9079 183.902 70.1938 182.92C69.4774 181.936 68.5994 181.463 67.7529 181.478Z" stroke="#FFA9C3" stroke-opacity="0.1" stroke-width="2"/>
<ellipse opacity="0.5" cx="36.2456" cy="196.671" rx="2.65025" ry="4.14102" transform="rotate(-33.7568 36.2456 196.671)" fill="white" fill-opacity="0.68"/>
<ellipse opacity="0.5" cx="42.393" cy="185.083" rx="2.65025" ry="4.14102" transform="rotate(-33.7568 42.393 185.083)" fill="white" fill-opacity="0.68"/>
<ellipse opacity="0.5" cx="2.65025" cy="4.14102" rx="2.65025" ry="4.14102" transform="matrix(-0.999981 0.00616572 0.00616572 0.999981 57.7835 177.355)" fill="white" fill-opacity="0.68"/>
<ellipse opacity="0.5" cx="2.65025" cy="4.14102" rx="2.65025" ry="4.14102" transform="matrix(-0.999981 0.00616572 0.00616572 0.999981 70.0054 183.309)" fill="white" fill-opacity="0.68"/>
<defs>
<linearGradient id="paint0_linear_666_931" x1="0" y1="2.6527" x2="49.5047" y2="2.6527" gradientUnits="userSpaceOnUse">
<stop stop-color="white"/>
<stop offset="1" stop-color="#FDF8E1"/>
</linearGradient>
<linearGradient id="paint1_linear_666_931" x1="0" y1="2.65204" x2="49.5047" y2="2.65204" gradientUnits="userSpaceOnUse">
<stop stop-color="white"/>
<stop offset="1" stop-color="#FDF8E1"/>
</linearGradient>
<linearGradient id="paint2_linear_666_931" x1="197.192" y1="160.917" x2="159.179" y2="160.917" gradientUnits="userSpaceOnUse">
<stop/>
<stop offset="1" stop-opacity="0"/>
</linearGradient>
<linearGradient id="paint3_linear_666_931" x1="38.0125" y1="18.5642" x2="0" y2="18.5642" gradientUnits="userSpaceOnUse">
<stop/>
<stop offset="1" stop-opacity="0"/>
</linearGradient>
</defs>
</svg>
