<svg width="126" height="99" viewBox="0 0 126 99" fill="none" xmlns="http://www.w3.org/2000/svg">
<path d="M99.0068 34.6233C99.3404 32.8486 99.5147 31.0174 99.5147 29.1449C99.5147 13.0486 86.6344 0 70.7454 0C61.0239 0 52.4283 4.88501 47.221 12.3644C42.2213 8.11229 35.7729 5.55141 28.7344 5.55141C12.998 5.55141 0.212812 18.3506 -0.0310898 34.2334H-0.0346642C-17.6888 34.2334 -32 48.7317 -32 66.6167C-32 84.5017 -17.6888 99 -0.0346642 99H94.035C111.689 99 126 84.5017 126 66.6167C126 50.4451 114.3 37.043 99.0068 34.6233Z" fill="#B8C3F9"/>
<path d="M105.137 14.2149C105.441 14.2487 105.439 14.7345 105.136 14.7682C101.749 15.1436 99.6023 15.6232 98.1712 16.7006C96.3996 18.0296 95.7609 20.2845 95.2731 24.3985C95.2375 24.6994 94.7632 24.7005 94.7275 24.3996C94.2189 20.1077 93.5436 17.8483 91.5877 16.5403C90.1693 15.5849 88.0592 15.1391 84.839 14.7836C84.5355 14.7501 84.5359 14.2675 84.8395 14.2339C88.2305 13.8588 90.3914 13.3822 91.8103 12.3172C93.6004 10.971 94.2407 8.72098 94.7292 4.58692C94.7648 4.28619 95.238 4.28658 95.2738 4.58728C95.7195 8.32806 96.2839 10.5216 97.7076 11.8895C99.1095 13.2365 101.357 13.7947 105.137 14.2149Z" fill="white"/>
</svg>
