<svg width="183" height="106" viewBox="0 0 183 106" fill="none" xmlns="http://www.w3.org/2000/svg">
<path d="M147.485 27.4768C145.315 19.2917 135.098 16.5247 129.095 22.4962L113.549 37.9587C107.545 43.9302 110.257 54.1616 118.431 56.3752L139.594 62.107C147.768 64.3206 155.272 56.8562 153.103 48.6711L147.485 27.4768Z" fill="#2D2D2D"/>
<path d="M141.919 27.333C141.13 24.3565 137.415 23.3504 135.232 25.5218L114.913 45.7322C112.73 47.9036 113.716 51.6241 116.688 52.4291L144.35 59.9209C147.322 60.7258 150.051 58.0115 149.262 55.0351L141.919 27.333Z" fill="#F5E187"/>
<path fill-rule="evenodd" clip-rule="evenodd" d="M134.752 25.4956C137.015 23.2446 140.594 23.7278 142.312 26.0805C133.003 29.5715 127.692 39.6314 130.318 49.4341C130.468 49.9925 130.641 50.5384 130.835 51.0718L122.062 48.6958C118.347 47.6896 117.114 43.039 119.843 40.3247L134.752 25.4956Z" fill="black" fill-opacity="0.19"/>
<path d="M34.5722 27.4768C36.7419 19.2917 46.9586 16.5247 52.9623 22.4962L68.508 37.9587C74.5118 43.9302 71.7997 54.1616 63.6263 56.3752L42.4626 62.107C34.2892 64.3206 26.7846 56.8562 28.9542 48.6711L34.5722 27.4768Z" fill="#2D2D2D"/>
<path d="M40.1377 27.333C40.9266 24.3565 44.6418 23.3504 46.825 25.5218L67.1442 45.7322C69.3273 47.9036 68.3411 51.6241 65.369 52.4291L37.7067 59.9209C34.7346 60.7258 32.0057 58.0115 32.7946 55.0351L40.1377 27.333Z" fill="#F5E187"/>
<path fill-rule="evenodd" clip-rule="evenodd" d="M38.7054 28.2131C39.4478 25.1083 42.7462 23.6383 45.4447 24.7367C39.3599 32.5998 40.1293 43.9496 47.5164 50.9083C47.9372 51.3047 48.3714 51.6781 48.8167 52.03L40.1049 54.6197C36.4156 55.7165 32.9218 52.4085 33.8165 48.6651L38.7054 28.2131Z" fill="black" fill-opacity="0.19"/>
<path d="M171.909 91.7245C171.909 76.1208 163.622 61.1392 148.826 49.9957C134.03 38.8523 113.905 32.4355 92.7716 32.1228C71.6383 31.8102 51.1814 37.6266 35.7925 48.3235C20.4035 59.0203 11.3095 73.7449 10.4626 89.336L91.1534 91.7245H171.909Z" fill="#6F86F3"/>
<ellipse cx="91.5" cy="93.8043" rx="74.1705" ry="54.7614" fill="#2D2D2D"/>
<rect x="155.273" y="72.3159" width="24.2614" height="38.8182" rx="12.1307" fill="#6F86F3"/>
<path d="M176.072 87.2432C177.086 88.5605 177.69 90.2092 177.69 92V101.37C177.69 105.605 174.318 109.05 170.113 109.173C173.6 107.874 176.084 104.516 176.085 100.576V87.7266C176.085 87.5644 176.08 87.4032 176.072 87.2432Z" fill="#6F86F3"/>
<path d="M176.072 87.2432C177.086 88.5605 177.69 90.2092 177.69 92V101.37C177.69 105.605 174.318 109.05 170.113 109.173C173.6 107.874 176.084 104.516 176.085 100.576V87.7266C176.085 87.5644 176.08 87.4032 176.072 87.2432Z" fill="white" fill-opacity="0.2"/>
<rect x="170.523" y="79.248" width="12.4773" height="25.6477" rx="6.23864" fill="#6F86F3"/>
<rect x="170.523" y="79.248" width="12.4773" height="25.6477" rx="6.23864" fill="white" fill-opacity="0.5"/>
<rect width="24.2614" height="38.8182" rx="12.1307" transform="matrix(-1 0 0 1 27.0341 72.3159)" fill="#6F86F3"/>
<path d="M6.23492 87.2432C5.22117 88.5605 4.61676 90.2092 4.61676 92V101.37C4.61676 105.605 7.98843 109.05 12.1939 109.173C8.70677 107.874 6.22243 104.516 6.22223 100.576V87.7266C6.22223 87.5644 6.22661 87.4032 6.23492 87.2432Z" fill="#6F86F3"/>
<path d="M6.23492 87.2432C5.22117 88.5605 4.61676 90.2092 4.61676 92V101.37C4.61676 105.605 7.98843 109.05 12.1939 109.173C8.70677 107.874 6.22243 104.516 6.22223 100.576V87.7266C6.22223 87.5644 6.22661 87.4032 6.23492 87.2432Z" fill="white" fill-opacity="0.2"/>
<rect width="12.4773" height="25.6477" rx="6.23864" transform="matrix(-1 0 0 1 12.4773 79.248)" fill="#6F86F3"/>
<rect width="12.4773" height="25.6477" rx="6.23864" transform="matrix(-1 0 0 1 12.4773 79.248)" fill="white" fill-opacity="0.5"/>
<path d="M91.1531 85.8071C100.796 109.15 122.881 126.042 149.143 128.222C135.545 140.62 114.763 148.546 91.4734 148.546C68.1518 148.546 47.3446 140.599 33.7478 128.172C59.7532 125.792 81.582 108.976 91.1531 85.8071Z" fill="white"/>
<ellipse cx="133.091" cy="105.588" rx="18.0227" ry="11.0909" fill="white" fill-opacity="0.33"/>
<rect width="28.8261" height="4.16013" rx="2.08006" transform="matrix(0.919671 -0.392691 0.441864 0.897082 135.864 95.4199)" fill="white"/>
<rect x="136.173" y="94.853" width="29.1136" height="4.15909" rx="2.07955" fill="white"/>
<rect width="28.8261" height="4.16013" rx="2.08006" transform="matrix(-0.919671 -0.392691 -0.441864 0.897082 47.446 95.4199)" fill="white"/>
<rect width="29.1136" height="4.15909" rx="2.07955" transform="matrix(-1 0 0 1 47.1364 94.853)" fill="white"/>
<ellipse cx="49.9091" cy="105.588" rx="18.0227" ry="11.0909" fill="white" fill-opacity="0.33"/>
<ellipse cx="16.6364" cy="21.8352" rx="16.6364" ry="21.8352" transform="matrix(1 0 0 -1 100.511 104.896)" fill="white"/>
<ellipse cx="12.1307" cy="15.9432" rx="12.1307" ry="15.9432" transform="matrix(1 0 0 -1 106.057 101.43)" fill="black"/>
<path d="M114.277 98.2245C114.257 98.4655 114.019 98.4655 113.999 98.2245L113.836 96.2026C113.624 93.5918 112.221 91.5334 110.441 91.2237L109.062 90.9838C108.898 90.9551 108.898 90.6054 109.062 90.5768L110.441 90.3369C112.221 90.0271 113.624 87.9687 113.836 85.3579L113.999 83.3361C114.019 83.095 114.257 83.095 114.277 83.3361L114.44 85.3579C114.652 87.9687 116.055 90.0271 117.835 90.3369L119.214 90.5768C119.378 90.6054 119.378 90.9551 119.214 90.9838L117.835 91.2237C116.055 91.5334 114.652 93.5918 114.44 96.2026L114.277 98.2245Z" fill="#F5E187"/>
<circle cx="1.38636" cy="1.38636" r="1.38636" transform="matrix(-0.618231 0.785996 0.785996 0.618231 118.714 83)" fill="white" fill-opacity="0.23"/>
<ellipse cx="16.6364" cy="21.8352" rx="16.6364" ry="21.8352" transform="matrix(1 0 0 -1 48.5227 104.896)" fill="white"/>
<ellipse cx="12.1307" cy="15.9432" rx="12.1307" ry="15.9432" transform="matrix(1 0 0 -1 54.0682 101.43)" fill="black"/>
<path d="M68.3376 98.0692C68.3181 98.3103 68.0796 98.3103 68.0601 98.0692L67.8966 96.0474C67.6853 93.4366 66.2819 91.3782 64.5018 91.0684L63.1233 90.8285C62.9589 90.7999 62.9589 90.4501 63.1233 90.4215L64.5018 90.1816C66.2819 89.8718 67.6853 87.8134 67.8966 85.2027L68.0601 83.1808C68.0796 82.9397 68.3181 82.9397 68.3376 83.1808L68.5012 85.2027C68.7124 87.8134 70.1159 89.8718 71.8959 90.1816L73.2745 90.4215C73.4388 90.4501 73.4388 90.7999 73.2745 90.8285L71.8959 91.0684C70.1159 91.3782 68.7124 93.4366 68.5012 96.0474L68.3376 98.0692Z" fill="#F5E187"/>
<circle cx="1.38636" cy="1.38636" r="1.38636" transform="matrix(-0.618231 0.785996 0.785996 0.618231 72.7142 83)" fill="white" fill-opacity="0.23"/>
</svg>
