<svg width="182" height="53" viewBox="0 0 182 53" fill="none" xmlns="http://www.w3.org/2000/svg">
<path d="M4.33662 24.9082C4.33662 24.9082 7.29792 15.4689 14.6878 11.2817C22.0777 7.09444 30.2339 6.27901 37.3622 9.01476C44.4905 11.7505 50.0069 17.8134 52.6979 25.8695C55.3889 33.9257 51.9739 41.7123 51.9739 41.7123L4.33662 24.9082Z" fill="#2D2D2D"/>
<path d="M47.3337 16.1772C25.3497 7.25441 16.9124 11.974 4.19412 25.015C7.18993 16.1774 13.7807 10.0356 22.0192 8.08845C30.2576 6.1413 41.3421 8.83763 47.3337 16.1772Z" fill="#727272" fill-opacity="0.2"/>
<path d="M24.3749 31.9279C23.7862 33.4507 22.946 34.8592 21.9022 36.0728C20.8585 37.2865 19.6317 38.2816 18.2918 39.0014C16.952 39.7211 15.5253 40.1514 14.0933 40.2676C12.6613 40.3839 11.252 40.1838 9.94592 39.6789C8.6398 39.1739 7.46243 38.374 6.48102 37.3247C5.49962 36.2754 4.73341 34.9974 4.22613 33.5636C3.71886 32.1297 3.48045 30.5681 3.52453 28.968C3.56861 27.3679 3.89431 25.7605 4.48303 24.2377L14.429 28.0828L24.3749 31.9279Z" fill="#2D2D2D"/>
<path d="M32.6999 35.0111C32.1112 36.534 31.271 37.9424 30.2272 39.1561C29.1835 40.3697 27.9567 41.3649 26.6168 42.0846C25.2769 42.8043 23.8503 43.2346 22.4183 43.3509C20.9863 43.4671 19.577 43.2671 18.2709 42.7621C16.9648 42.2572 15.7874 41.4572 14.806 40.408C13.8246 39.3587 13.0584 38.0807 12.5511 36.6468C12.0439 35.213 11.8055 33.6514 11.8495 32.0513C11.8936 30.4511 12.2193 28.8438 12.808 27.3209L22.754 31.166L32.6999 35.0111Z" fill="#2D2D2D"/>
<path d="M43.1832 38.4027C42.5944 39.9256 41.7542 41.334 40.7105 42.5477C39.6668 43.7613 38.4399 44.7565 37.1001 45.4762C35.7602 46.196 34.3336 46.6262 32.9016 46.7425C31.4696 46.8587 30.0603 46.6587 28.7542 46.1537C27.4481 45.6488 26.2707 44.8488 25.2893 43.7996C24.3079 42.7503 23.5417 41.4723 23.0344 40.0384C22.5271 38.6046 22.2887 37.043 22.3328 35.4429C22.3769 33.8427 22.7026 32.2354 23.2913 30.7125L33.2372 34.5576L43.1832 38.4027Z" fill="#2D2D2D"/>
<path d="M52.1248 41.1776C51.5361 42.7005 50.6959 44.1089 49.6521 45.3226C48.6084 46.5362 47.3816 47.5314 46.0417 48.2511C44.7018 48.9709 43.2752 49.4011 41.8432 49.5174C40.4112 49.6336 39.0019 49.4336 37.6958 48.9286C36.3897 48.4237 35.2123 47.6237 34.2309 46.5745C33.2495 45.5252 32.4833 44.2472 31.976 42.8133C31.4688 41.3795 31.2303 39.8179 31.2744 38.2178C31.3185 36.6176 31.6442 35.0103 32.2329 33.4874L42.1789 37.3325L52.1248 41.1776Z" fill="#2D2D2D"/>
<path d="M177.663 24.9082C177.663 24.9082 174.702 15.4689 167.312 11.2817C159.922 7.09444 151.766 6.27901 144.638 9.01476C137.51 11.7505 131.993 17.8134 129.302 25.8695C126.611 33.9257 130.026 41.7123 130.026 41.7123L177.663 24.9082Z" fill="#2D2D2D"/>
<path d="M157.625 31.9279C158.214 33.4507 159.054 34.8592 160.098 36.0728C161.142 37.2865 162.368 38.2816 163.708 39.0014C165.048 39.7211 166.475 40.1514 167.907 40.2676C169.339 40.3839 170.748 40.1838 172.054 39.6789C173.36 39.1739 174.538 38.374 175.519 37.3247C176.5 36.2754 177.267 34.9974 177.774 33.5636C178.281 32.1297 178.52 30.5681 178.475 28.968C178.431 27.3679 178.106 25.7605 177.517 24.2377L167.571 28.0828L157.625 31.9279Z" fill="#2D2D2D"/>
<path d="M149.3 35.0111C149.889 36.534 150.729 37.9424 151.773 39.1561C152.817 40.3697 154.043 41.3649 155.383 42.0846C156.723 42.8043 158.15 43.2346 159.582 43.3509C161.014 43.4671 162.423 43.2671 163.729 42.7621C165.035 42.2572 166.213 41.4572 167.194 40.408C168.175 39.3587 168.942 38.0807 169.449 36.6468C169.956 35.213 170.195 33.6514 170.151 32.0513C170.106 30.4511 169.781 28.8438 169.192 27.3209L159.246 31.166L149.3 35.0111Z" fill="#2D2D2D"/>
<path d="M138.817 38.4027C139.406 39.9256 140.246 41.334 141.29 42.5477C142.333 43.7613 143.56 44.7565 144.9 45.4762C146.24 46.196 147.666 46.6262 149.098 46.7425C150.53 46.8587 151.94 46.6587 153.246 46.1537C154.552 45.6488 155.729 44.8488 156.711 43.7996C157.692 42.7503 158.458 41.4723 158.966 40.0384C159.473 38.6046 159.711 37.043 159.667 35.4429C159.623 33.8427 159.297 32.2354 158.709 30.7125L148.763 34.5576L138.817 38.4027Z" fill="#2D2D2D"/>
<path d="M129.875 41.1776C130.464 42.7005 131.304 44.1089 132.348 45.3226C133.392 46.5362 134.618 47.5314 135.958 48.2511C137.298 48.9709 138.725 49.4011 140.157 49.5174C141.589 49.6336 142.998 49.4336 144.304 48.9286C145.61 48.4237 146.788 47.6237 147.769 46.5745C148.75 45.5252 149.517 44.2472 150.024 42.8133C150.531 41.3795 150.77 39.8179 150.726 38.2178C150.682 36.6176 150.356 35.0103 149.767 33.4874L139.821 37.3325L129.875 41.1776Z" fill="#2D2D2D"/>
<path d="M165.446 10.3357C141.735 11.1763 134.876 19.2993 128.597 36.3991C126.95 27.1121 132.043 17.6753 138.034 12.8821C144.026 8.08884 156.908 5.54235 165.446 10.3357Z" fill="#727272" fill-opacity="0.2"/>
</svg>
