<svg width="75" height="55" viewBox="0 0 75 55" fill="none" xmlns="http://www.w3.org/2000/svg">
<path d="M-4.13667 19.2352C-4.32034 18.2492 -4.41633 17.2319 -4.41633 16.1916C-4.41633 7.24924 2.676 0 11.425 0C16.778 0 21.511 2.7139 24.3783 6.86909C27.1313 4.50683 30.682 3.08412 34.5577 3.08412C43.2226 3.08412 50.2626 10.1948 50.3969 19.0185H50.3988C60.1198 19.0185 68 27.0732 68 37.0093C68 46.9454 60.1198 55 50.3988 55H-1.399C-11.1197 55 -19 46.9454 -19 37.0093C-19 28.025 -12.5573 20.5794 -4.13667 19.2352Z" fill="#B8C3F9"/>
<path d="M45.4996 17.893C44.8963 17.9768 44.897 18.999 45.5004 19.0824C49.127 19.5835 51.5472 20.2625 53.2311 21.5809C55.3602 23.2419 56.2737 25.9361 56.9124 30.5931C56.9951 31.1957 58.0044 31.1943 58.0871 30.5918C58.757 25.7134 59.7317 22.999 62.0934 21.3564C63.7523 20.1943 66.1142 19.5707 69.5481 19.1007C70.1512 19.0182 70.1501 18.006 69.5472 17.9232C65.9033 17.4233 63.4659 16.7494 61.7939 15.444C59.6398 13.7594 58.7225 11.0636 58.0823 6.37662C58.0001 5.77434 56.9947 5.77555 56.912 6.37778C56.3372 10.564 55.5468 13.1549 53.8552 14.8453C52.181 16.5183 49.6111 17.3222 45.4996 17.893Z" fill="white"/>
</svg>
