<svg width="351" height="285" viewBox="0 0 351 285" fill="none" xmlns="http://www.w3.org/2000/svg">
<path opacity="0.1" d="M-67.4999 369.733C-66.6841 348.105 -65.4109 326.485 -58.9168 305.669C-53.2659 287.589 -43.1134 272.426 -27.623 261.111C-21.2093 256.433 -14.2511 252.855 -6.7164 250.329C17.0962 242.312 41.4078 241.497 66.1228 244.725C91.2051 247.999 115.618 254.228 140.042 260.523C168.126 267.758 196.24 274.917 225.202 277.863C242.22 279.596 259.177 279.639 276.04 276.397C288.316 274.035 299.877 269.845 310.734 263.583C327.268 254.053 337.838 239.84 344.224 222.165C350.046 206.056 351.359 189.453 349.832 172.536C347.585 147.57 340.256 124.195 327.269 102.701C306.325 68.043 279.078 39.5 244.204 18.583C229.806 9.94762 214.747 2.59102 197.85 0.495308C191.693 -0.27184 185.188 -0.17004 179.097 0.95507C165.546 3.45436 157.353 13.1808 156.115 26.916C154.919 40.2329 158.706 52.4548 164.505 64.2238C165.25 65.7276 165.913 67.3109 166.898 68.6495C167.495 69.4604 168.615 70.3055 169.515 70.329C170.191 70.3503 171.369 69.1787 171.529 68.372C172.324 64.3857 173.168 60.3693 173.398 56.3316C173.801 49.1165 173.347 41.8328 174.012 34.6477C175.255 21.3995 180.192 17.5498 193.569 18.6377C202.494 19.3658 210.852 22.2309 218.862 26.0013C266.025 48.2059 299.641 83.8451 321.119 130.857C330.997 152.464 334.941 175.52 332.077 199.378C330.774 210.251 327.198 220.391 321.691 229.847C316.973 237.951 310.251 243.961 302.313 248.777C287.063 258.024 270.298 262.3 252.685 263.65C230.277 265.374 208.15 262.682 186.343 257.942C158.939 251.999 131.719 245.159 104.396 238.826C81.3127 233.476 58.0292 229.564 34.2368 229.89C19.0123 230.091 4.11642 232.589 -10.4145 237.073C-35.314 244.755 -52.7126 261.191 -64.5582 283.963C-73.5147 301.183 -77.0261 319.956 -80.0177 338.862C-81.1657 346.103 -81.839 353.434 -82.7444 360.722C-82.8594 361.634 -83.1313 362.533 -83.33 363.436C-78.0476 365.521 -72.7737 367.627 -67.4999 369.733Z" fill="#6F86F3"/>
</svg>
