<svg viewBox="0 0 48 44" fill="none" xmlns="http://www.w3.org/2000/svg">
<path d="M21.6253 11.7567C24.695 9.4346 29.1272 11.3063 29.6034 15.1257L31.0584 26.7972C31.5345 30.6166 27.6975 33.5192 24.1516 32.0218L13.3164 27.4462C9.77058 25.9488 9.17539 21.1746 12.245 18.8525L21.6253 11.7567Z" fill="#ADADAD" fill-opacity="0.2"/>
<path d="M24.7033 11.6808C27.7524 9.3318 32.2009 11.1644 32.7107 14.9795L34.2685 26.6377C34.7782 30.4527 30.9669 33.389 27.408 31.923L16.5329 27.4429C12.974 25.9768 12.3368 21.208 15.3859 18.859L24.7033 11.6808Z" fill="#EDC61B"/>
<rect x="30.3316" y="15.9231" width="1.5296" height="3.89533" rx="0.7648" transform="rotate(-8.3613 30.3316 15.9231)" fill="white"/>
<rect x="29.1541" y="13.3716" width="1.5296" height="1.51597" rx="0.757987" transform="rotate(-15.8721 29.1541 13.3716)" fill="white"/>
</svg>
