<svg viewBox="0 0 10 10" fill="none" xmlns="http://www.w3.org/2000/svg">
<path d="M6.55208 4.78686L3.48958 7.84936C3.38542 7.95353 3.335 8.07506 3.33833 8.21395C3.34167 8.35283 3.39556 8.47436 3.5 8.57853C3.60444 8.6827 3.72597 8.73478 3.86458 8.73478C4.00319 8.73478 4.12472 8.6827 4.22917 8.57853L7.4375 5.38061C7.52083 5.29728 7.58333 5.20353 7.625 5.09936C7.66667 4.9952 7.6875 4.89103 7.6875 4.78686C7.6875 4.6827 7.66667 4.57853 7.625 4.47436C7.58333 4.3702 7.52083 4.27645 7.4375 4.19311L4.22917 0.984779C4.125 0.880612 4.00167 0.830196 3.85917 0.833529C3.71667 0.836862 3.59347 0.890751 3.48958 0.995196C3.38569 1.09964 3.33361 1.22117 3.33333 1.35978C3.33306 1.49839 3.38514 1.61992 3.48958 1.72436L6.55208 4.78686Z" fill="currentColor"/>
</svg>
